{
  "accessors": [
    {
      "bufferView": 2,
      "componentType": 5126,
      "count": 12,
      "max": [
        0.008969999849796295,
        -0.06745000183582306,
        0.1341399997472763
      ],
      "min": [
        -0.008969999849796295,
        -0.0864500030875206,
        0.11818999797105789
      ],
      "type": "VEC3"
    },
    {
      "bufferView": 2,
      "byteOffset": 144,
      "componentType": 5126,
      "count": 12,
      "max": [
        0.8232467770576477,
        -0.2814388871192932,
        0.4930080771446228
      ],
      "min": [
        -0.8232467770576477,
        -0.45399999618530273,
        -0.5235599875450134
      ],
      "type": "VEC3"
    },
    {
      "bufferView": 1,
      "componentType": 5126,
      "count": 12,
      "max": [
        0.8726900219917297,
        0.9879599809646606
      ],
      "min": [
        0.805840015411377,
        0.8839600086212158
      ],
      "type": "VEC2"
    },
    {
      "bufferView": 0,
      "componentType": 5125,
      "count": 12,
      "type": "SCALAR"
    },
    {
      "bufferView": 2,
      "byteOffset": 288,
      "componentType": 5126,
      "count": 144,
      "max": [
        0.02914999984204769,
        0.07701999694108963,
        0.13976000249385834
      ],
      "min": [
        -0.02914999984204769,
        -0.07580000162124634,
        0.0002500000118743628
      ],
      "type": "VEC3"
    },
    {
      "bufferView": 2,
      "byteOffset": 2016,
      "componentType": 5126,
      "count": 144,
      "max": [
        0.972418487071991,
        0.739399254322052,
        0.8443397283554077
      ],
      "min": [
        -0.972418487071991,
        -0.7416985630989075,
        -0.9999985694885254
      ],
      "type": "VEC3"
    },
    {
      "bufferView": 1,
      "byteOffset": 96,
      "componentType": 5126,
      "count": 144,
      "max": [
        0.9740200042724609,
        0.9276300072669983
      ],
      "min": [
        0.44255000352859497,
        0.0032999999821186066
      ],
      "type": "VEC2"
    },
    {
      "bufferView": 0,
      "byteOffset": 48,
      "componentType": 5125,
      "count": 156,
      "type": "SCALAR"
    },
    {
      "bufferView": 2,
      "byteOffset": 3744,
      "componentType": 5126,
      "count": 236,
      "max": [
        0.03635000064969063,
        -0.015610000118613243,
        0.1253100037574768
      ],
      "min": [
        -0.03635000064969063,
        -0.07904999703168869,
        -9.999999747378752e-06
      ],
      "type": "VEC3"
    },
    {
      "bufferView": 2,
      "byteOffset": 6576,
      "componentType": 5126,
      "count": 236,
      "max": [
        0.9649002552032471,
        0.7444204092025757,
        0.7579949498176575
      ],
      "min": [
        -0.9649002552032471,
        -0.8414344191551208,
        -1.0
      ],
      "type": "VEC3"
    },
    {
      "bufferView": 1,
      "byteOffset": 1248,
      "componentType": 5126,
      "count": 236,
      "max": [
        0.9865800142288208,
        0.973800003528595
      ],
      "min": [
        0.0032999999821186066,
        0.0032999999821186066
      ],
      "type": "VEC2"
    },
    {
      "bufferView": 0,
      "byteOffset": 672,
      "componentType": 5125,
      "count": 252,
      "type": "SCALAR"
    },
    {
      "bufferView": 2,
      "byteOffset": 9408,
      "componentType": 5126,
      "count": 172,
      "max": [
        0.03294000029563904,
        0.03685000166296959,
        0.11935000121593475
      ],
      "min": [
        -0.03294000029563904,
        -0.05778999999165535,
        0.019260000437498093
      ],
      "type": "VEC3"
    },
    {
      "bufferView": 2,
      "byteOffset": 11472,
      "componentType": 5126,
      "count": 172,
      "max": [
        0.9938606023788452,
        0.8517588376998901,
        0.757781445980072
      ],
      "min": [
        -0.9938606023788452,
        -0.8529406189918518,
        -0.9554932117462158
      ],
      "type": "VEC3"
    },
    {
      "bufferView": 1,
      "byteOffset": 3136,
      "componentType": 5126,
      "count": 172,
      "max": [
        0.9390699863433838,
        0.9966999888420105
      ],
      "min": [
        0.0032999999821186066,
        0.0032999999821186066
      ],
      "type": "VEC2"
    },
    {
      "bufferView": 0,
      "byteOffset": 1680,
      "componentType": 5125,
      "count": 204,
      "type": "SCALAR"
    }
  ],
  "asset": {
    "extras": {
      "author": "Łukasz Paraszka (https://sketchfab.com/LukaszParaszka)",
      "license": "CC-BY-4.0 (http://creativecommons.org/licenses/by/4.0/)",
      "source": "https://sketchfab.com/3d-models/bird-bullfinch-1cbecfb93d454acda8f4df9a6aba26d4",
      "title": "Bird - Bullfinch"
    },
    "generator": "Sketchfab-12.66.0",
    "version": "2.0"
  },
  "bufferViews": [
    {
      "buffer": 0,
      "byteLength": 2496,
      "name": "floatBufferViews",
      "target": 34963
    },
    {
      "buffer": 0,
      "byteLength": 4512,
      "byteOffset": 2496,
      "byteStride": 8,
      "name": "floatBufferViews",
      "target": 34962
    },
    {
      "buffer": 0,
      "byteLength": 13536,
      "byteOffset": 7008,
      "byteStride": 12,
      "name": "floatBufferViews",
      "target": 34962
    }
  ],
  "buffers": [
    {
      "byteLength": 20544,
      "uri": "scene.bin"
    }
  ],
  "materials": [
    {
      "doubleSided": true,
      "name": "material",
      "pbrMetallicRoughness": {
        "baseColorFactor": [
          0.04970656598412723,
          0.04970656598412723,
          0.04970656598412723,
          1.0
        ],
        "metallicFactor": 0.0,
        "roughnessFactor": 0.6
      }
    },
    {
      "doubleSided": true,
      "name": "material_1",
      "pbrMetallicRoughness": {
        "baseColorFactor": [
          0.03310476657088505,
          0.03310476657088505,
          0.03310476657088505,
          1.0
        ],
        "metallicFactor": 0.0,
        "roughnessFactor": 0.6
      }
    },
    {
      "doubleSided": true,
      "name": "material_2",
      "pbrMetallicRoughness": {
        "baseColorFactor": [
          0.7991027380144088,
          0.21586050011389935,
          0.0382043715953465,
          1.0
        ],
        "metallicFactor": 0.0,
        "roughnessFactor": 0.6
      }
    },
    {
      "doubleSided": true,
      "name": "material_3",
      "pbrMetallicRoughness": {
        "baseColorFactor": [
          0.3662525955988395,
          0.3662525955988395,
          0.3662525955988395,
          1.0
        ],
        "metallicFactor": 0.0,
        "roughnessFactor": 0.6
      }
    }
  ],
  "meshes": [
    {
      "name": "Plane_0",
      "primitives": [
        {
          "attributes": {
            "NORMAL": 1,
            "POSITION": 0,
            "TEXCOORD_0": 2
          },
          "indices": 3,
          "material": 0,
          "mode": 4
        }
      ]
    },
    {
      "name": "Plane_1",
      "primitives": [
        {
          "attributes": {
            "NORMAL": 5,
            "POSITION": 4,
            "TEXCOORD_0": 6
          },
          "indices": 7,
          "material": 1,
          "mode": 4
        }
      ]
    },
    {
      "name": "Plane_2",
      "primitives": [
        {
          "attributes": {
            "NORMAL": 9,
            "POSITION": 8,
            "TEXCOORD_0": 10
          },
          "indices": 11,
          "material": 2,
          "mode": 4
        }
      ]
    },
    {
      "name": "Plane_3",
      "primitives": [
        {
          "attributes": {
            "NORMAL": 13,
            "POSITION": 12,
            "TEXCOORD_0": 14
          },
          "indices": 15,
          "material": 3,
          "mode": 4
        }
      ]
    }
  ],
  "nodes": [
    {
      "children": [
        1
      ],
      "matrix": [
        1.0,
        0.0,
        0.0,
        0.0,
        0.0,
        2.220446049250313e-16,
        -1.0,
        0.0,
        0.0,
        1.0,
        2.220446049250313e-16,
        0.0,
        0.0,
        0.0,
        0.0,
        1.0
      ],
      "name": "Sketchfab_model"
    },
    {
      "children": [
        2
      ],
      "name": "Root"
    },
    {
      "children": [
        3,
        4,
        5,
        6
      ],
      "name": "Plane"
    },
    {
      "mesh": 0,
      "name": "Plane_0"
    },
    {
      "mesh": 1,
      "name": "Plane_1"
    },
    {
      "mesh": 2,
      "name": "Plane_2"
    },
    {
      "mesh": 3,
      "name": "Plane_3"
    }
  ],
  "scene": 0,
  "scenes": [
    {
      "name": "Sketchfab_Scene",
      "nodes": [
        0
      ]
    }
  ]
}
